<svg width="40" height="27" viewBox="0 0 40 27" fill="none" xmlns="http://www.w3.org/2000/svg">
<path d="M40 0H0V27H40V0Z" fill="white"/>
<path d="M13.66 5.21999L10.025 10.745L9.125 10.14L12.765 4.61499L13.66 5.21999Z" fill="black"/>
<path d="M12.3 4.30001L8.66001 9.82501L7.76501 9.22001L11.405 3.69501L12.3 4.30001Z" fill="black"/>
<path d="M10.945 3.38002L7.30497 8.90502L6.40997 8.30002L10.05 2.77502L10.945 3.38002Z" fill="black"/>
<path d="M32.24 9.24497L28.6 3.71997L27.705 4.32497L31.345 9.84997L32.24 9.24497Z" fill="black"/>
<path d="M13.65 21.77L10.015 16.245L9.11499 16.85L12.755 22.375L13.65 21.77Z" fill="black"/>
<path d="M10.935 23.61L7.29502 18.085L6.40002 18.69L10.04 24.215L10.935 23.61Z" fill="black"/>
<path d="M10.315 19.69L8.65 17.17L7.755 17.775L9.41 20.29L10.315 19.69Z" fill="black"/>
<path d="M10.62 20.155L9.71503 20.755L11.395 23.295L12.29 22.695L10.62 20.155Z" fill="black"/>
<path d="M28.9 7.15501L27.245 4.64001L26.35 5.24001L28 7.75001L28.9 7.15501Z" fill="black"/>
<path d="M29.205 7.62L28.305 8.215L29.99 10.765L30.885 10.16L29.205 7.62Z" fill="black"/>
<path d="M31.62 5.31499L29.96 2.79999L29.065 3.40499L30.72 5.91499L31.62 5.31499Z" fill="black"/>
<path d="M31.93 5.78003L31.025 6.38003L32.705 8.92503L33.6 8.32003L31.93 5.78003Z" fill="black"/>
<path d="M29.225 19.38L30.885 16.86L29.99 16.255L28.325 18.78L29.225 19.38Z" fill="black"/>
<path d="M28.015 19.245L26.35 21.78L27.245 22.385L28.92 19.845L28.015 19.245Z" fill="black"/>
<path d="M30.58 20.295L32.24 17.78L31.345 17.175L29.68 19.7L30.58 20.295Z" fill="black"/>
<path d="M29.375 20.165L27.705 22.7L28.6 23.3L30.275 20.76L29.375 20.165Z" fill="black"/>
<path d="M31.955 21.2L33.6 18.7L32.705 18.095L31.055 20.605L31.955 21.2Z" fill="black"/>
<path d="M30.745 21.07L29.065 23.62L29.96 24.225L31.65 21.665L30.745 21.07Z" fill="black"/>
<path d="M22.695 12.03C22.3329 12.0307 21.9733 12.0898 21.63 12.205C21.3732 12.2954 21.1281 12.4163 20.9 12.565C20.7864 12.6394 20.6778 12.7212 20.575 12.81C20.5226 12.8522 20.4725 12.8972 20.425 12.945C20.3872 12.9938 20.3372 13.0317 20.28 13.055C20.28 13.055 20.24 13.055 20.225 13.09C20.2075 13.1033 20.1868 13.1119 20.165 13.115C20.1396 13.145 20.1091 13.1704 20.075 13.19C20.0491 13.2385 20.0153 13.2824 19.975 13.32C19.975 13.35 19.92 13.445 19.89 13.45C19.8466 13.5409 19.7982 13.6294 19.745 13.715C19.745 13.715 19.72 13.77 19.69 13.775V13.8C19.69 13.85 19.64 13.875 19.615 13.915C19.589 13.9582 19.5607 13.9999 19.53 14.04L19.38 14.21C19.3406 14.246 19.2988 14.2794 19.255 14.31C19.145 14.385 19.035 14.46 18.92 14.525C18.4311 14.7983 17.8801 14.9412 17.32 14.94C16.884 14.9374 16.4528 14.8489 16.051 14.6796C15.6492 14.5104 15.2847 14.2636 14.9783 13.9534C14.6718 13.6433 14.4295 13.2758 14.2651 12.872C14.1007 12.4682 14.0174 12.036 14.02 11.6C14.0194 11.128 14.1182 10.6612 14.31 10.23C13.7427 11.2344 13.4463 12.369 13.4501 13.5226C13.4539 14.6761 13.7577 15.8088 14.3316 16.8094C14.9056 17.8101 15.7299 18.6442 16.7237 19.2299C17.7175 19.8155 18.8466 20.1326 20 20.15C20.9881 20.1502 21.9633 19.9252 22.8513 19.492C23.7394 19.0588 24.517 18.4288 25.125 17.65C25.3406 17.38 25.5329 17.0923 25.7 16.79C25.9076 16.3454 26.0151 15.8607 26.015 15.37C26.0177 14.9323 25.9337 14.4984 25.7681 14.0933C25.6024 13.6882 25.3583 13.3199 25.0497 13.0094C24.7412 12.699 24.3743 12.4527 23.9702 12.2846C23.5661 12.1165 23.1327 12.03 22.695 12.03Z" fill="#003478"/>
<path d="M26.53 13.52C26.5359 12.6542 26.3712 11.7957 26.0452 10.9935C25.7191 10.1914 25.2382 9.46138 24.6299 8.84519C24.0217 8.22901 23.2979 7.73874 22.5 7.4024C21.7022 7.06606 20.8458 6.89025 19.98 6.88501C19.0371 6.88524 18.1054 7.09064 17.2498 7.48694C16.3942 7.88324 15.635 8.46096 15.025 9.18001C14.7454 9.50445 14.4991 9.85623 14.29 10.23C14.0982 10.6612 13.9994 11.128 14 11.6C13.9974 12.036 14.0806 12.4682 14.2451 12.8721C14.4095 13.2759 14.6518 13.6433 14.9583 13.9535C15.2647 14.2636 15.6292 14.5104 16.031 14.6797C16.4328 14.8489 16.864 14.9374 17.3 14.94C17.7683 14.9406 18.2313 14.8404 18.6574 14.6463C19.0836 14.4522 19.4631 14.1687 19.77 13.815C19.8931 13.5778 20.0442 13.3562 20.22 13.155C20.5311 12.7985 20.9156 12.5134 21.347 12.3193C21.7785 12.1251 22.2469 12.0264 22.72 12.03C23.156 12.0326 23.5872 12.1211 23.989 12.2904C24.3908 12.4596 24.7553 12.7064 25.0618 13.0165C25.3682 13.3267 25.6105 13.6942 25.775 14.098C25.9394 14.5018 26.0226 14.934 26.02 15.37C26.0201 15.8607 25.9126 16.3454 25.705 16.79C26.2577 15.7895 26.5419 14.6629 26.53 13.52Z" fill="#C60C30"/>
</svg>
