<svg width="40" height="27" viewBox="0 0 40 27" fill="none" xmlns="http://www.w3.org/2000/svg">
<path d="M40 2.07501H0V4.15001H40V2.07501Z" fill="white"/>
<path d="M40 6.22998H0V8.30498H40V6.22998Z" fill="white"/>
<path d="M40 10.385H0V12.46H40V10.385Z" fill="white"/>
<path d="M40 14.54H0V16.615H40V14.54Z" fill="white"/>
<path d="M40 18.69H0V20.765H40V18.69Z" fill="white"/>
<path d="M40 22.845H0V24.92H40V22.845Z" fill="white"/>
<path d="M40 0H0V2.075H40V0Z" fill="#B22234"/>
<path d="M40 4.15503H0V6.23003H40V4.15503Z" fill="#B22234"/>
<path d="M40 8.31H0V10.385H40V8.31Z" fill="#B22234"/>
<path d="M40 12.46H0V14.535H40V12.46Z" fill="#B22234"/>
<path d="M40 16.615H0V18.69H40V16.615Z" fill="#B22234"/>
<path d="M40 20.77H0V22.845H40V20.77Z" fill="#B22234"/>
<path d="M40 24.925H0V27H40V24.925Z" fill="#B22234"/>
<path d="M0 0V2.075V4.155V6.23V8.305V10.385V12.46V14.54H19.065V12.46V10.385V8.305V6.23V4.155V2.075V0H0Z" fill="#3C3B6E"/>
<path d="M1.165 0.590027L1.35 1.17003H1.955L1.465 1.53003L1.65 2.11503L1.165 1.75503L0.675 2.11503L0.86 1.53003L0.37 1.17003H0.975L1.165 0.590027Z" fill="white"/>
<path d="M4.525 0.590027L4.71 1.17003H5.315L4.825 1.53003L5.015 2.11503L4.525 1.75503L4.035 2.11503L4.22 1.53003L3.73 1.17003H4.335L4.525 0.590027Z" fill="white"/>
<path d="M2.83 2.04498L3.015 2.62498H3.62L3.13 2.98498L3.32 3.56998L2.83 3.20998L2.34 3.56998L2.525 2.98498L2.035 2.62498H2.64L2.83 2.04498Z" fill="white"/>
<path d="M6.205 2.04498L6.39 2.62498H6.995L6.505 2.98498L6.695 3.56998L6.205 3.20998L5.715 3.56998L5.9 2.98498L5.41 2.62498H6.02L6.205 2.04498Z" fill="white"/>
<path d="M9.535 2.04498L9.72 2.62498H10.325L9.835 2.98498L10.025 3.56998L9.535 3.20998L9.045 3.56998L9.23 2.98498L8.74 2.62498H9.345L9.535 2.04498Z" fill="white"/>
<path d="M12.895 2.04498L13.08 2.62498H13.685L13.195 2.98498L13.385 3.56998L12.895 3.20998L12.405 3.56998L12.59 2.98498L12.1 2.62498H12.705L12.895 2.04498Z" fill="white"/>
<path d="M16.24 2.04498L16.425 2.62498H17.03L16.54 2.98498L16.73 3.56998L16.24 3.20998L15.75 3.56998L15.935 2.98498L15.445 2.62498H16.05L16.24 2.04498Z" fill="white"/>
<path d="M2.83 4.95001L3.015 5.53501H3.62L3.13 5.89501L3.32 6.47501L2.83 6.11501L2.34 6.47501L2.525 5.89501L2.035 5.53501H2.64L2.83 4.95001Z" fill="white"/>
<path d="M6.205 4.95001L6.39 5.53501H6.995L6.505 5.89501L6.695 6.47501L6.205 6.11501L5.715 6.47501L5.9 5.89501L5.41 5.53501H6.02L6.205 4.95001Z" fill="white"/>
<path d="M9.535 4.95001L9.72 5.53501H10.325L9.835 5.89501L10.025 6.47501L9.535 6.11501L9.045 6.47501L9.23 5.89501L8.74 5.53501H9.345L9.535 4.95001Z" fill="white"/>
<path d="M12.895 4.95001L13.08 5.53501H13.685L13.195 5.89501L13.385 6.47501L12.895 6.11501L12.405 6.47501L12.59 5.89501L12.1 5.53501H12.705L12.895 4.95001Z" fill="white"/>
<path d="M16.24 4.95001L16.425 5.53501H17.03L16.54 5.89501L16.73 6.47501L16.24 6.11501L15.75 6.47501L15.935 5.89501L15.445 5.53501H16.05L16.24 4.95001Z" fill="white"/>
<path d="M2.83 7.87L3.015 8.45499H3.62L3.13 8.81499L3.32 9.395L2.83 9.03499L2.34 9.395L2.525 8.81499L2.035 8.45499H2.64L2.83 7.87Z" fill="white"/>
<path d="M6.205 7.87L6.39 8.45499H6.995L6.505 8.81499L6.695 9.395L6.205 9.03499L5.715 9.395L5.9 8.81499L5.41 8.45499H6.02L6.205 7.87Z" fill="white"/>
<path d="M9.535 7.87L9.72 8.45499H10.325L9.835 8.81499L10.025 9.395L9.535 9.03499L9.045 9.395L9.23 8.81499L8.74 8.45499H9.345L9.535 7.87Z" fill="white"/>
<path d="M12.895 7.87L13.08 8.45499H13.685L13.195 8.81499L13.385 9.395L12.895 9.03499L12.405 9.395L12.59 8.81499L12.1 8.45499H12.705L12.895 7.87Z" fill="white"/>
<path d="M16.24 7.87L16.425 8.45499H17.03L16.54 8.81499L16.73 9.395L16.24 9.03499L15.75 9.395L15.935 8.81499L15.445 8.45499H16.05L16.24 7.87Z" fill="white"/>
<path d="M2.83 10.755L3.015 11.34H3.62L3.13 11.7L3.32 12.28L2.83 11.92L2.34 12.28L2.525 11.7L2.035 11.34H2.64L2.83 10.755Z" fill="white"/>
<path d="M6.205 10.755L6.39 11.34H6.995L6.505 11.7L6.695 12.28L6.205 11.92L5.715 12.28L5.9 11.7L5.41 11.34H6.02L6.205 10.755Z" fill="white"/>
<path d="M9.535 10.755L9.72 11.34H10.325L9.835 11.7L10.025 12.28L9.535 11.92L9.045 12.28L9.23 11.7L8.74 11.34H9.345L9.535 10.755Z" fill="white"/>
<path d="M12.895 10.755L13.08 11.34H13.685L13.195 11.7L13.385 12.28L12.895 11.92L12.405 12.28L12.59 11.7L12.1 11.34H12.705L12.895 10.755Z" fill="white"/>
<path d="M16.24 10.755L16.425 11.34H17.03L16.54 11.7L16.73 12.28L16.24 11.92L15.75 12.28L15.935 11.7L15.445 11.34H16.05L16.24 10.755Z" fill="white"/>
<path d="M7.86 0.590027L8.045 1.17003H8.65L8.16 1.53003L8.35 2.11503L7.86 1.75503L7.37 2.11503L7.555 1.53003L7.065 1.17003H7.67L7.86 0.590027Z" fill="white"/>
<path d="M11.22 0.590027L11.405 1.17003H12.01L11.52 1.53003L11.71 2.11503L11.22 1.75503L10.73 2.11503L10.915 1.53003L10.425 1.17003H11.03L11.22 0.590027Z" fill="white"/>
<path d="M14.555 0.590027L14.745 1.17003H15.35L14.86 1.53003L15.045 2.11503L14.555 1.75503L14.07 2.11503L14.255 1.53003L13.765 1.17003H14.37L14.555 0.590027Z" fill="white"/>
<path d="M17.9 0.590027L18.09 1.17003H18.695L18.205 1.53003L18.39 2.11503L17.9 1.75503L17.415 2.11503L17.6 1.53003L17.11 1.17003H17.715L17.9 0.590027Z" fill="white"/>
<path d="M1.165 3.495L1.35 4.07499H1.955L1.465 4.43499L1.65 5.01999L1.165 4.65999L0.675 5.01999L0.86 4.43499L0.37 4.07499H0.975L1.165 3.495Z" fill="white"/>
<path d="M4.525 3.495L4.71 4.07499H5.315L4.825 4.43499L5.015 5.01999L4.525 4.65999L4.035 5.01999L4.22 4.43499L3.73 4.07499H4.335L4.525 3.495Z" fill="white"/>
<path d="M7.86 3.495L8.045 4.07499H8.65L8.16 4.43499L8.35 5.01999L7.86 4.65999L7.37 5.01999L7.555 4.43499L7.065 4.07499H7.67L7.86 3.495Z" fill="white"/>
<path d="M11.22 3.495L11.405 4.07499H12.01L11.52 4.43499L11.71 5.01999L11.22 4.65999L10.73 5.01999L10.915 4.43499L10.425 4.07499H11.03L11.22 3.495Z" fill="white"/>
<path d="M14.555 3.495L14.745 4.07499H15.35L14.86 4.43499L15.045 5.01999L14.555 4.65999L14.07 5.01999L14.255 4.43499L13.765 4.07499H14.37L14.555 3.495Z" fill="white"/>
<path d="M17.9 3.495L18.09 4.07499H18.695L18.205 4.43499L18.39 5.01999L17.9 4.65999L17.415 5.01999L17.6 4.43499L17.11 4.07499H17.715L17.9 3.495Z" fill="white"/>
<path d="M1.165 6.41498L1.35 6.99998H1.955L1.465 7.35998L1.65 7.94498L1.165 7.57998L0.675 7.94498L0.86 7.35998L0.37 6.99998H0.975L1.165 6.41498Z" fill="white"/>
<path d="M4.525 6.41498L4.71 6.99998H5.315L4.825 7.35998L5.015 7.94498L4.525 7.57998L4.035 7.94498L4.22 7.35998L3.73 6.99998H4.335L4.525 6.41498Z" fill="white"/>
<path d="M7.86 6.41498L8.045 6.99998H8.65L8.16 7.35998L8.35 7.94498L7.86 7.57998L7.37 7.94498L7.555 7.35998L7.065 6.99998H7.67L7.86 6.41498Z" fill="white"/>
<path d="M11.22 6.41498L11.405 6.99998H12.01L11.52 7.35998L11.71 7.94498L11.22 7.57998L10.73 7.94498L10.915 7.35998L10.425 6.99998H11.035L11.22 6.41498Z" fill="white"/>
<path d="M14.555 6.41498L14.745 6.99998H15.35L14.86 7.35998L15.045 7.94498L14.555 7.57998L14.07 7.94498L14.255 7.35998L13.765 6.99998H14.37L14.555 6.41498Z" fill="white"/>
<path d="M17.9 6.41498L18.09 6.99998H18.695L18.205 7.35998L18.39 7.94498L17.9 7.57998L17.415 7.94498L17.6 7.35998L17.11 6.99998H17.715L17.9 6.41498Z" fill="white"/>
<path d="M1.165 9.34003L1.35 9.92503H1.955L1.465 10.285L1.65 10.865L1.165 10.505L0.675 10.865L0.86 10.285L0.37 9.92503H0.975L1.165 9.34003Z" fill="white"/>
<path d="M4.525 9.34003L4.71 9.92503H5.315L4.825 10.285L5.015 10.865L4.525 10.505L4.035 10.865L4.22 10.285L3.73 9.92503H4.335L4.525 9.34003Z" fill="white"/>
<path d="M7.86 9.34003L8.045 9.92503H8.65L8.16 10.285L8.35 10.865L7.86 10.505L7.37 10.865L7.555 10.285L7.065 9.92503H7.67L7.86 9.34003Z" fill="white"/>
<path d="M11.22 9.34003L11.405 9.92503H12.01L11.52 10.285L11.71 10.865L11.22 10.505L10.73 10.865L10.915 10.285L10.425 9.92503H11.03L11.22 9.34003Z" fill="white"/>
<path d="M14.555 9.34003L14.745 9.92503H15.35L14.86 10.285L15.045 10.865L14.555 10.505L14.07 10.865L14.255 10.285L13.765 9.92503H14.37L14.555 9.34003Z" fill="white"/>
<path d="M17.9 9.34003L18.09 9.92503H18.695L18.205 10.285L18.39 10.865L17.9 10.505L17.415 10.865L17.6 10.285L17.11 9.92503H17.715L17.9 9.34003Z" fill="white"/>
<path d="M1.165 12.22L1.35 12.8H1.955L1.465 13.16L1.65 13.745L1.165 13.385L0.675 13.745L0.86 13.16L0.37 12.8H0.975L1.165 12.22Z" fill="white"/>
<path d="M4.525 12.22L4.71 12.8H5.315L4.825 13.16L5.015 13.745L4.525 13.385L4.035 13.745L4.22 13.16L3.73 12.8H4.335L4.525 12.22Z" fill="white"/>
<path d="M7.86 12.22L8.045 12.8H8.65L8.16 13.16L8.35 13.745L7.86 13.385L7.37 13.745L7.555 13.16L7.065 12.8H7.67L7.86 12.22Z" fill="white"/>
<path d="M11.22 12.22L11.405 12.8H12.01L11.52 13.16L11.71 13.745L11.22 13.385L10.73 13.745L10.915 13.16L10.425 12.8H11.03L11.22 12.22Z" fill="white"/>
<path d="M14.555 12.22L14.745 12.8H15.35L14.86 13.16L15.045 13.745L14.555 13.385L14.07 13.745L14.255 13.16L13.765 12.8H14.37L14.555 12.22Z" fill="white"/>
<path d="M17.9 12.22L18.09 12.8H18.695L18.205 13.16L18.39 13.745L17.9 13.385L17.415 13.745L17.6 13.16L17.11 12.8H17.715L17.9 12.22Z" fill="white"/>
</svg>
