<svg width="20" height="20" viewBox="0 0 20 20" fill="none" xmlns="http://www.w3.org/2000/svg">
<path d="M9.99996 1.66667C14.6025 1.66667 18.3333 5.39834 18.3333 10C18.3333 14.6017 14.6025 18.3333 9.99996 18.3333C5.39746 18.3333 1.66663 14.6017 1.66663 10C1.66663 5.39834 5.39746 1.66667 9.99996 1.66667ZM9.99996 3.05584C6.17079 3.05584 3.05579 6.17084 3.05579 10C3.05579 13.8292 6.17079 16.9442 9.99996 16.9442C13.8291 16.9442 16.9441 13.8292 16.9441 10C16.9441 6.17084 13.8291 3.05584 9.99996 3.05584ZM9.99996 12.9167C10.221 12.9167 10.4329 13.0045 10.5892 13.1608C10.7455 13.317 10.8333 13.529 10.8333 13.75C10.8333 13.971 10.7455 14.183 10.5892 14.3393C10.4329 14.4955 10.221 14.5833 9.99996 14.5833C9.77895 14.5833 9.56698 14.4955 9.4107 14.3393C9.25442 14.183 9.16663 13.971 9.16663 13.75C9.16663 13.529 9.25442 13.317 9.4107 13.1608C9.56698 13.0045 9.77895 12.9167 9.99996 12.9167ZM9.99996 5.62501C10.6077 5.62501 11.1906 5.86645 11.6204 6.29622C12.0502 6.72599 12.2916 7.30888 12.2916 7.91667C12.2916 8.75834 12.0441 9.22834 11.4158 9.88251L11.275 10.025C10.7566 10.5433 10.625 10.7633 10.625 11.25C10.625 11.4158 10.5591 11.5747 10.4419 11.6919C10.3247 11.8092 10.1657 11.875 9.99996 11.875C9.8342 11.875 9.67523 11.8092 9.55802 11.6919C9.44081 11.5747 9.37496 11.4158 9.37496 11.25C9.37496 10.4083 9.62246 9.93834 10.2508 9.28417L10.3916 9.14167C10.91 8.62334 11.0416 8.40334 11.0416 7.91667C11.0408 7.65023 10.9378 7.39426 10.754 7.20138C10.5702 7.00851 10.3195 6.8934 10.0534 6.87974C9.78729 6.86608 9.52608 6.9549 9.32348 7.12793C9.12087 7.30097 8.99227 7.54506 8.96413 7.81001L8.95829 7.91667C8.95829 8.08243 8.89244 8.2414 8.77523 8.35861C8.65802 8.47582 8.49905 8.54167 8.33329 8.54167C8.16753 8.54167 8.00856 8.47582 7.89135 8.35861C7.77414 8.2414 7.70829 8.08243 7.70829 7.91667C7.70829 7.30888 7.94974 6.72599 8.37951 6.29622C8.80928 5.86645 9.39217 5.62501 9.99996 5.62501Z" fill="#767676"/>
</svg>
