<svg width="16" height="16" viewBox="0 0 16 16" fill="none" xmlns="http://www.w3.org/2000/svg">
<path d="M7.03333 1.68866C7.30384 1.46068 7.64623 1.33564 8 1.33564C8.35377 1.33564 8.69616 1.46068 8.96667 1.68866L13.4667 5.48533C13.8053 5.77 14 6.18933 14 6.632V13.1667C14 13.4761 13.8771 13.7728 13.6583 13.9916C13.4395 14.2104 13.1428 14.3333 12.8333 14.3333H10.8333C10.5239 14.3333 10.2272 14.2104 10.0084 13.9916C9.78958 13.7728 9.66667 13.4761 9.66667 13.1667V9.83333C9.66667 9.70072 9.61399 9.57354 9.52022 9.47978C9.42645 9.38601 9.29927 9.33333 9.16667 9.33333H6.83333C6.70073 9.33333 6.57355 9.38601 6.47978 9.47978C6.38601 9.57354 6.33333 9.70072 6.33333 9.83333V13.1667C6.33333 13.4761 6.21042 13.7728 5.99162 13.9916C5.77283 14.2104 5.47609 14.3333 5.16667 14.3333H3.16667C3.01346 14.3333 2.86175 14.3032 2.7202 14.2445C2.57866 14.1859 2.45004 14.1 2.34171 13.9916C2.23337 13.8833 2.14744 13.7547 2.08881 13.6131C2.03018 13.4716 2 13.3199 2 13.1667V6.63133C2 6.18933 2.19467 5.77 2.53333 5.48466L7.03333 1.68866Z" fill="white"/>
</svg>
