<svg width="16" height="16" viewBox="0 0 16 16" fill="none" xmlns="http://www.w3.org/2000/svg">
<path fill-rule="evenodd" clip-rule="evenodd" d="M8 0.666656C3.95 0.666656 0.666668 3.94999 0.666668 7.99999C0.666668 12.05 3.95 15.3333 8 15.3333C12.05 15.3333 15.3333 12.05 15.3333 7.99999C15.3333 3.94999 12.05 0.666656 8 0.666656ZM8.66667 10.6667C8.66667 10.8435 8.59643 11.013 8.47141 11.1381C8.34638 11.2631 8.17681 11.3333 8 11.3333C7.82319 11.3333 7.65362 11.2631 7.5286 11.1381C7.40357 11.013 7.33333 10.8435 7.33333 10.6667V8.66666H5.33333C5.15652 8.66666 4.98695 8.59642 4.86193 8.47139C4.73691 8.34637 4.66667 8.1768 4.66667 7.99999C4.66667 7.82318 4.73691 7.65361 4.86193 7.52858C4.98695 7.40356 5.15652 7.33332 5.33333 7.33332H7.33333V5.33332C7.33333 5.15651 7.40357 4.98694 7.5286 4.86192C7.65362 4.73689 7.82319 4.66666 8 4.66666C8.17681 4.66666 8.34638 4.73689 8.47141 4.86192C8.59643 4.98694 8.66667 5.15651 8.66667 5.33332V7.33332H10.6667C10.8435 7.33332 11.013 7.40356 11.1381 7.52858C11.2631 7.65361 11.3333 7.82318 11.3333 7.99999C11.3333 8.1768 11.2631 8.34637 11.1381 8.47139C11.013 8.59642 10.8435 8.66666 10.6667 8.66666H8.66667V10.6667Z" fill="white"/>
</svg>
