<svg width="14" height="15" viewBox="0 0 14 15" fill="none" xmlns="http://www.w3.org/2000/svg">
<path d="M6.5205 11.9153C6.57402 11.993 6.64562 12.0565 6.72915 12.1004C6.81269 12.1444 6.90564 12.1673 7 12.1673C7.09437 12.1673 7.18732 12.1444 7.27085 12.1004C7.35438 12.0565 7.42599 11.993 7.4795 11.9153L12.7295 4.33194C12.7903 4.24447 12.8259 4.14202 12.8325 4.03572C12.8392 3.92943 12.8165 3.82334 12.7671 3.729C12.7177 3.63466 12.6434 3.55567 12.5522 3.5006C12.461 3.44554 12.3565 3.41652 12.25 3.41669H1.75C1.64374 3.41713 1.53962 3.44652 1.44881 3.50172C1.35801 3.55691 1.28398 3.63581 1.23467 3.72993C1.18535 3.82406 1.16263 3.92984 1.16895 4.03591C1.17526 4.14199 1.21037 4.24433 1.2705 4.33194L6.5205 11.9153Z" fill="white"/>
</svg>
