<svg width="24" height="24" viewBox="0 0 24 24" fill="none" xmlns="http://www.w3.org/2000/svg">
<path d="M2.39999 13.68H7.19999C7.24799 13.68 7.29599 13.632 7.34399 13.632C7.39199 13.536 7.48799 13.44 7.53599 13.344C7.96799 12.672 8.30399 11.904 8.44799 11.328C8.78399 9.98401 8.11199 7.82401 7.29599 6.04801C7.24799 5.95201 7.10399 5.90401 7.00799 6.04801L2.35199 13.296L2.25599 13.44C2.20799 13.536 2.30399 13.68 2.39999 13.68Z" fill="white"/>
<path d="M22.848 14.592L17.376 16.176C17.328 16.176 17.328 16.176 17.28 16.224C16.704 16.896 16.176 17.328 16.08 17.424C15.744 17.712 15.312 17.856 14.88 17.856H12.912V15.84H14.496C14.544 15.84 14.592 15.84 14.592 15.792L14.784 15.6C14.88 15.504 14.976 15.408 15.12 15.312C15.216 15.216 15.264 15.168 15.36 15.072C15.456 14.976 15.504 14.928 15.6 14.832C15.744 14.688 15.84 14.544 15.984 14.4C16.08 14.304 16.176 14.208 16.224 14.064C16.32 13.968 16.416 13.824 16.464 13.728C16.512 13.632 16.608 13.536 16.656 13.44C16.704 13.344 16.752 13.248 16.8 13.152C16.944 12.912 17.088 12.672 17.184 12.384C17.232 12.24 17.28 12.144 17.328 12C17.376 11.856 17.424 11.76 17.424 11.616C17.472 11.328 17.52 10.992 17.472 10.704C17.472 10.608 17.472 10.512 17.424 10.416C17.424 10.368 17.424 10.272 17.376 10.224C17.328 9.936 17.184 9.648 17.088 9.312C17.04 9.216 16.992 9.072 16.944 8.976C16.848 8.736 16.704 8.544 16.56 8.304C16.512 8.20799 16.464 8.16 16.416 8.064C16.32 7.92 16.176 7.728 16.08 7.584C15.984 7.488 15.888 7.344 15.792 7.248C15.696 7.152 15.6 7.008 15.504 6.912C15.168 6.528 14.784 6.192 14.496 5.856C14.448 5.808 14.352 5.76 14.304 5.664C14.064 5.424 13.824 5.232 13.632 5.088C13.536 4.992 13.44 4.944 13.392 4.896C13.296 4.848 13.248 4.752 13.152 4.752H13.104L12.912 4.8V3.072C12.912 2.784 12.816 2.544 12.624 2.352C12.432 2.16 12.192 2.064 11.904 2.064C11.328 2.064 10.896 2.544 10.896 3.072V4.224L10.8 4.176L10.512 4.08L10.272 4.032L8.30402 3.504C8.20802 3.504 8.16002 3.552 8.20802 3.648L8.54402 4.224C8.59202 4.32 8.59202 4.368 8.64002 4.464C8.68802 4.56 8.73602 4.656 8.78402 4.8C8.83202 4.896 8.88002 4.992 8.92802 5.088C9.02402 5.328 9.12002 5.568 9.26402 5.808C9.36002 6 9.40802 6.144 9.45602 6.336C9.64802 6.816 9.79202 7.296 9.93602 7.776C9.98402 7.92 10.032 8.112 10.08 8.256V8.352C10.128 8.592 10.176 8.832 10.224 9.072C10.272 9.216 10.272 9.408 10.272 9.552C10.272 9.744 10.32 9.888 10.32 10.08C10.32 10.224 10.32 10.416 10.32 10.56C10.32 10.992 10.272 11.376 10.176 11.712C10.128 11.808 10.128 11.952 10.08 12.048C10.032 12.192 9.98402 12.288 9.93602 12.432C9.88802 12.528 9.88802 12.576 9.84002 12.672C9.64802 13.104 9.40802 13.536 9.21602 13.968C8.88002 14.592 8.54402 15.12 8.30402 15.456C8.25602 15.504 8.25602 15.552 8.20802 15.6C8.11202 15.696 8.20802 15.84 8.35202 15.84H10.896V17.856H8.30402C7.63202 17.856 6.96002 17.472 6.67202 16.848C6.52802 16.512 6.43202 16.176 6.48002 15.84C6.48002 15.744 6.43202 15.648 6.28802 15.648H1.10402C1.00802 15.648 0.960022 15.744 0.960022 15.84V15.936C0.960022 19.248 3.64802 21.936 6.96002 21.936H16.272C18.528 21.936 19.488 19.344 20.832 17.52C21.36 16.8 22.56 16.224 22.944 16.08C22.992 16.032 23.04 15.984 23.04 15.936V14.784C23.04 14.64 22.944 14.592 22.848 14.592Z" fill="white"/>
</svg>
