<svg width="24" height="24" viewBox="0 0 24 24" fill="none" xmlns="http://www.w3.org/2000/svg">
<path d="M20.303 5.59198C19.9786 5.1019 19.5192 4.72702 18.9744 4.5091C17.7917 4.03486 16.7746 3.71806 15.8645 3.5395C15.2261 3.4147 14.5939 3.72862 14.2901 4.31998L14.2142 4.46782C13.5403 4.39342 12.8246 4.36846 12.0096 4.3891C11.1739 4.36894 10.4558 4.39342 9.78097 4.46782L9.70561 4.31998C9.40177 3.72862 8.76865 3.41518 8.13169 3.53998C7.22161 3.71806 6.20401 4.03486 5.02177 4.50958C4.47745 4.7275 4.01809 5.1019 3.69313 5.59246C1.42705 9.01534 0.539048 12.7075 0.978728 16.8806C0.994088 17.027 1.07569 17.1581 1.20001 17.2363C2.94337 18.3355 4.45201 19.0881 5.94769 19.6056C6.57313 19.824 7.26673 19.5797 7.63585 19.0157L8.29393 18.0072C7.76977 17.8094 7.25809 17.5752 6.76753 17.2953C6.53761 17.1643 6.45745 16.871 6.58849 16.6411C6.71953 16.4102 7.01281 16.3291 7.24321 16.4621C8.70289 17.2944 10.3531 17.7345 12.0154 17.7345C13.6776 17.7345 15.3278 17.2944 16.7875 16.4621C17.0174 16.3291 17.3107 16.4102 17.4422 16.6411C17.5733 16.871 17.4931 17.1643 17.2632 17.2953C16.7563 17.5848 16.2264 17.8257 15.6835 18.0269L16.3608 19.0358C16.6397 19.451 17.1 19.6872 17.5742 19.6872C17.7288 19.6872 17.8848 19.6617 18.0365 19.6099C19.5365 19.092 21.048 18.3384 22.7952 17.2368C22.9195 17.1585 23.0011 17.027 23.0165 16.8811C23.4571 12.7075 22.5691 9.01486 20.303 5.59198ZM8.93185 13.9118C8.00737 13.9118 7.24657 12.9379 7.24657 11.7542C7.24657 10.5705 8.00737 9.59662 8.93185 9.59662C9.85633 9.59662 10.6171 10.5705 10.6171 11.7542C10.6171 12.9379 9.85633 13.9118 8.93185 13.9118ZM15.1685 13.8993C14.2526 13.8993 13.499 12.9197 13.499 11.7288C13.499 10.5379 14.2526 9.55822 15.1685 9.55822C16.0843 9.55822 16.8379 10.5379 16.8379 11.7288C16.8379 12.9197 16.0843 13.8993 15.1685 13.8993Z" fill="white"/>
</svg>
